<?xml version="1.0" encoding="UTF-8"?>
<svg width="457.99" height="454.91" version="1.1" viewBox="0 0 121.18 120.36" xmlns="http://www.w3.org/2000/svg" xmlns:cc="http://creativecommons.org/ns#" xmlns:dc="http://purl.org/dc/elements/1.1/" xmlns:rdf="http://www.w3.org/1999/02/22-rdf-syntax-ns#">
	<g transform="translate(-234 -112.3)" stroke-width=".26458" fill="#ff7f00">
		<path d="m289.11 120.26c-0.86439-0.6733-1.7128-1.3722-2.6557-1.9339-0.50249-0.35893-0.78787-0.10829-1.3204-0.0116-0.56738 0.21966-1.1283 0.43273-1.6588 0.73516-0.70241 0.34805-1.416 0.67907-2.1028 1.0589-1.7583 0.83252-4.2753 2.3256 3.7173-2.1783 0.1106-0.0623-0.20989 0.14281-0.31451 0.21473-0.27622 0.18988-0.3606 0.24993-0.63486 0.44215-0.74737 0.40372-1.3286 1.0002-1.9189 1.5958-0.63727 0.54113-1.184 1.1732-1.7407 1.7938-0.52224 0.56426-0.9043 1.2323-1.2858 1.8943-0.41108 0.59113-0.72911 1.2295-1.0371 1.8774-0.30638 0.62045-0.54824 1.2672-0.79801 1.9114-0.27008 0.78373-0.38626 1.6106-0.56017 2.42-0.1628 0.66725-0.21302 1.3511-0.24051 2.0349-0.0206 0.73919-0.0169 1.4788-0.0161 2.2182 0.0759 0.73479 0.21241 1.4614 0.30115 2.1952 0.0293 0.60507 0.20476 1.1807 0.41876 1.7419 0.30305 0.51203 0.53369 1.0595 0.84796 1.5652 0.37097 0.62508 0.61542 1.3104 0.87675 1.9851 0.27953 0.61418 0.48398 1.261 0.76094 1.8752 0.2013 0.5787 0.6513 0.87578 1.2015 1.085 0.76089 0.22753 1.5615 0.15245 2.3368 0.28454 0.81894 0.13118 1.6312 0.23209 2.4382 0.42183 0.64622 0.13727 1.246 0.46384 1.7632 0.8678 0.49895 0.32521 1.0356 0.6033 1.6085 0.77316 0.6554 0.20177 1.2783 0.0159 1.9314-0.0713 0.88566-0.19845 1.7155-0.54194 2.5239-0.94697 0.15404-0.0674 0.31035-0.12977 0.46212-0.20211 0.56581-0.26968 0.33647-0.18374 0.88016-0.49527 0.14205-0.0814 0.57452-0.31418 0.43286-0.23208-2.0694 1.1995-10.643 6.1091 0.82383-0.46252 1.9903-1.1683-1.0075 0.59297-4.0107 2.301-0.11718 0.0667 0.22738-0.14504 0.33936-0.22015 0.34155-0.22909 0.65746-0.48084 0.97253-0.74461 0.71381-0.58038 1.4369-1.1464 2.126-1.7568 0.68504-0.67458 1.3054-1.4152 1.9221-2.1525 0.62455-0.79423 1.2602-1.5748 1.8149-2.4201 0.5951-0.85373 1.1007-1.7639 1.6024-2.6742 0.45453-0.90977 0.89229-1.8332 1.2272-2.7944 0.34721-0.93538 0.61098-1.8955 0.65617-2.8945-0.0599-0.95752-0.10329-1.9216-0.2381-2.8722-0.12676-0.80064-0.34089-1.5843-0.59373-2.3536-0.23846-0.76399-0.52564-1.5111-0.72128-2.2879-0.0832-0.69566-0.25942-1.3522-0.51387-2.0023-0.3271-0.58091-0.65958-1.1592-1.0141-1.724-0.31065-0.54092-0.4831-1.1491-0.77819-1.6971-0.20495-0.49556-0.48509-0.93778-0.78523-1.3782-0.33615-0.36186-0.7538-0.60824-1.2155-0.77626-0.43696-0.11636-0.88955-0.11059-1.3379-0.11223-0.30946-0.0465-0.64696 0.0625-0.95385 6e-3 -0.17539-0.0322-0.33806-0.11387-0.50919-0.16395-0.2716-0.13819-0.60256-0.0909-0.88313-0.17816-0.15356-0.0478-0.29025-0.13909-0.4391-0.20003-0.0638-0.0259-0.12279-0.0717-0.19137-0.0775-0.1229-0.0104-0.23686 0.0709-0.35838 0.092-0.28247 0.049-0.56997 0.0664-0.8554 0.0881-0.75364 0.1986-1.5066 0.39431-2.2609 0.59296-0.36124 0.14482-0.71814 0.27692-1.0664 0.45098l4.4038-3.4861c0.36807-0.14012 0.73531-0.28534 1.1185-0.3802 0.76885-0.20057 1.5369-0.4299 2.3276-0.52502 0.53652-0.0545 1.0626-0.16336 1.5639 0.1004 0.41305 0.14958 0.86146 0.18145 1.2794 0.3226 0.45807 0.0931 0.92932 0.0251 1.3947 0.0571 0.49834 0.026 0.99557 0.0781 1.4562 0.28644 0.52533 0.25285 1.014 0.59254 1.3837 1.0484 0.31435 0.45576 0.60063 0.92008 0.81558 1.4322 0.28702 0.53954 0.46471 1.1316 0.75274 1.6712 0.36425 0.59816 0.72887 1.1961 1.0632 1.8116 0.26678 0.67355 0.49377 1.344 0.54647 2.0737 0.17452 0.76613 0.46612 1.4936 0.69498 2.244 0.27662 0.79402 0.49162 1.6119 0.63336 2.4408 0.16809 0.97577 0.16899 1.9749 0.2748 2.959 0.0196 1.0446-0.20569 2.072-0.58217 3.0461-0.30054 1.0042-0.76025 1.938-1.1812 2.896-0.51954 0.90824-0.98219 1.8536-1.5896 2.7082-0.55237 0.85734-1.1327 1.6819-1.7886 2.4648-0.58412 0.78205-1.2733 1.4815-1.8885 2.2396-0.67374 0.62311-1.3604 1.2343-2.114 1.7608-1.998 1.8403-4.4822 3.0039-6.8669 4.294 1.4646-0.84835 5.868-3.3771 4.394-2.545-2.3192 1.3093-4.5725 2.8028-7.0078 3.9106-0.84362 0.3768-1.7194 0.68529-2.6377 0.81921-0.71387 0.10246-1.4122 0.12963-2.0991-0.1382-0.59544-0.24055-1.1752-0.53165-1.6971-0.90826-0.50052-0.32746-1.0309-0.58426-1.6262-0.68577-0.79417-0.17053-1.6043-0.24637-2.4046-0.3837-0.82309-0.0753-1.6725-0.0695-2.4417-0.41377-0.62555-0.32507-1.1669-0.74115-1.4137-1.4285-0.28369-0.6217-0.49257-1.277-0.76769-1.9034-0.25754-0.63962-0.4768-1.2981-0.83481-1.8922-0.33391-0.53534-0.5815-1.1144-0.90149-1.6577-0.23323-0.6019-0.45154-1.2214-0.48514-1.8723-0.0709-0.75598-0.1969-1.5022-0.32329-2.2505-3e-3 -0.74454-6e-3 -1.4892 5e-3 -2.2336 0.0167-0.71406 0.0405-1.4322 0.19719-2.1321 0.19394-0.82776 0.3352-1.6616 0.52618-2.4876 0.23572-0.66279 0.48665-1.3169 0.77086-1.9597 0.32769-0.65471 0.58936-1.3371 1.0144-1.9389 0.45342-0.63462 0.74422-1.3777 1.2513-1.9805 0.56672-0.62064 1.0924-1.2879 1.7277-1.839 0.63818-0.55182 1.1173-1.2778 1.8755-1.6871 0.33401-0.19695 0.62444-0.44713 0.95726-0.64398 1.985-1.174 3.8472-2.3883 5.8855-3.388 0.70612-0.35169 1.407-0.71379 2.1166-1.0584 0.5707-0.25359 1.1512-0.50286 1.7696-0.61327 0.5823-0.10093 1.0617-8e-3 1.5415 0.36403 0.9325 0.62202 1.7931 1.3424 2.6972 2.0043l-4.7633 2.9695z"/>
		<path d="m342.39 121.47c-1.1126-0.80807-2.3625-1.4138-3.6463-1.8971-1.024-0.33426-2.098-0.38152-3.1651-0.40742-1.1753-0.0404-2.354 0.0901-3.5081 0.30777-1.3191 0.21858-2.6166 0.54942-3.8876 0.963-1.0857 0.33864-2.1548 0.77169-3.1408 1.3412 8.0495-5.2397 4.077-2.317 2.3226-0.92451-0.72366 0.52255-1.3075 1.198-1.8985 1.8591-0.52287 0.60949-0.98462 1.269-1.4131 1.9473-0.45575 0.75774-0.93679 1.4987-1.358 2.2766-0.38915 0.81499-0.7167 1.6647-0.94313 2.5395-0.15854 0.84247-0.27334 1.6894-0.28067 2.5471 0.0156 0.80568 0.036 1.6111 0.0455 2.4169 0.0101 0.92957 0.0116 1.8593 9e-3 2.7889-0.0578 1.0361 0.0975 2.0593 0.21225 3.0853 0.11276 0.96784 0.1402 1.9423 0.16092 2.9155 0.0719 0.76219 0.17433 1.524 0.39489 2.2581 0.20759 0.66807 0.60462 1.2169 1.0173 1.7693 0.43519 0.5374 0.8132 1.1046 1.3039 1.5939 0.55058 0.54381 1.1237 1.0556 1.7368 1.5267 0.64913 0.44257 1.4016 0.67096 2.1202 0.96606 0.74679 0.24302 1.4755 0.52852 2.2469 0.68664 0.80322 0.17979 1.5977 0.35461 2.4199 0.43984 0.87908 0.23322 1.7795 0.34175 2.6843 0.40748 0.81923 0.0495 1.6403 0.0461 2.4606 0.0498 0.94345-0.091 1.8213-0.4485 2.7238-0.70938 1.0207-0.41572 2.0321-0.85494 3.0486-1.2842 2.0411-0.95297 6.4537-3.5982-2.0488 1.2949 0.74737-0.42489 1.4325-0.92519 2.0602-1.5106 0.59394-0.52388 1.0873-1.1308 1.5199-1.7908 0.5047-0.71389 0.92567-1.4802 1.381-2.2249 0.51737-0.88507 0.99679-1.7912 1.4346-2.7183 0.45992-0.96769 0.82809-1.9708 1.1598-2.9879 0.33454-0.88578 0.47839-1.8174 0.55957-2.7555 0.0555-0.84341 0.0554-1.6893 0.055-2.5341-0.0377-0.98044-0.25754-1.937-0.45696-2.8933-0.21169-0.85343-0.51678-1.6809-0.82995-2.5015-0.27172-0.76555-0.56647-1.5233-0.76734-2.3114-0.17754-0.6721-0.45037-1.3122-0.66699-1.9712-0.15023-0.56466-0.28567-1.1284-0.44643-1.6907-0.0855-0.55219-0.35475-1.021-0.65283-1.4818-0.26054-0.45748-0.69945-0.70156-1.1008-1.0054-0.4989-0.30814-1.0108-0.59805-1.5402-0.85113-0.67723-0.35673-1.3455-0.74253-2.0567-1.0282-0.95488-0.33234-1.9749-0.36962-2.9757-0.40766-0.83405-0.0416-1.6703 0.0368-2.4976-0.0829l4.5713-3.251c0.82172 0.0453 1.6455 0.0217 2.4675 0.0679 1.0527 0.0612 2.1191 0.14899 3.1021 0.56337 0.70993 0.32254 1.3996 0.68722 2.0911 1.0473 0.54271 0.28743 1.0902 0.56942 1.5943 0.92245 0.4708 0.32267 0.89892 0.69354 1.2035 1.1844 0.33073 0.50232 0.64148 1.0274 0.73964 1.6305 0.15267 0.55912 0.31896 1.1064 0.42868 1.6761 0.21127 0.67539 0.50054 1.3235 0.68172 2.0096 0.17706 0.77073 0.47258 1.5023 0.72822 2.249 0.33163 0.8471 0.62949 1.7104 0.86569 2.5891 0.1982 0.99274 0.43677 1.9767 0.51535 2.9895 0 0.8578 0.014 1.7164-0.0343 2.5733-0.0682 0.9759-0.17856 1.9588-0.50839 2.8859-0.36037 1.0211-0.66043 2.0616-1.1368 3.0397-0.42117 0.95325-0.91975 1.8594-1.3927 2.7864-0.48705 0.72506-0.86223 1.517-1.3759 2.225-0.43325 0.68038-0.84859 1.3722-1.4648 1.9092-0.62434 0.61597-1.2556 1.2012-2.0248 1.6346-2.4898 1.4403-4.9272 3.0283-7.5716 4.1857-1.0221 0.42961-2.0319 0.89847-3.0877 1.2403-0.92268 0.2919-1.8566 0.58592-2.8351 0.58436-0.82925-2e-3 -1.6595-0.0146-2.4859-0.0892-0.90707-0.0922-1.8007-0.25154-2.6955-0.42248-0.83114-0.11464-1.6424-0.30884-2.4616-0.48628-0.77793-0.20526-1.5351-0.4826-2.2914-0.75539-0.76909-0.29231-1.5388-0.60619-2.2056-1.0986-0.62971-0.48854-1.2111-1.0301-1.78-1.588-0.50059-0.51254-0.90273-1.0977-1.3448-1.6597-0.45164-0.6034-0.8722-1.2166-1.118-1.9371-0.23921-0.78437-0.351-1.5902-0.45336-2.4036-0.0109-0.95909-0.032-1.919-0.12933-2.874-0.10978-1.0441-0.29824-2.0831-0.24297-3.1371-4e-3 -0.92647-3e-3 -1.853-0.013-2.7794-0.0111-0.80706-0.0333-1.6138-0.053-2.4207-8e-3 -0.89922 0.0879-1.7733 0.23292-2.6603 0.17383-0.92817 0.53244-1.7991 0.88357-2.6724 0.39476-0.79794 0.85477-1.5538 1.3387-2.3003 0.39468-0.72463 0.88591-1.3811 1.3662-2.0503 0.60357-0.66875 1.1672-1.3885 1.873-1.9528 2.336-1.8258 4.1416-3.5701 7.2403-4.6663 1.0269-0.50621 2.0941-0.93465 3.196-1.2488 1.2921-0.37867 2.6027-0.69466 3.9338-0.90317 1.1871-0.17078 2.3837-0.29976 3.5848-0.22582 1.1109 0.0507 2.2208 0.16262 3.2663 0.57172 1.2958 0.54601 2.548 1.1918 3.723 1.9666l-4.7171 3.0399z"/>
		<path d="m320.63 132.7c9.1103-4.6992 4.3702-3.0102 3.2129-1.5654-0.19479 0.24318-0.19206 0.29585-0.2862 0.56086-0.10803 0.57862 0.38761 0.67332 0.84881 0.74297 0.7375-0.0605 1.4706-0.16283 2.2054-0.24938 0.67667-0.10265 1.0264 0.27219 1.0977 0.91343-0.029 0.67297-0.36965 1.2646-0.71784 1.8227-0.42828 0.56457-0.8522 1.1324-1.269 1.7054-0.29927 0.37802-0.55896 0.77546-0.70003 1.2383-0.0377-0.0858-0.0314 0.0534-0.0246 0.0395 0.0834-0.16774 0.41122-0.0954 0.5724-0.0938 0.51192-0.1802 1.0819-0.36806 1.6233-0.26321 0.62462 0.12326 0.91908 0.58296 0.96641 1.1855-0.0119 0.71735-0.2105 1.4093-0.40542 2.094-0.18063 0.64175-0.50392 1.2258-0.73141 1.8501-0.10898 0.62497-0.31245 0.26116-0.12565-0.0483 0.46974-0.18948 0.90016-0.4419 1.3854-0.59907 0.60669 0.0919 0.74108 0.65007 0.76219 1.1831-0.0857 0.62415-0.19997 1.2432-0.26432 1.8704-6e-3 0.0701-0.0122 0.14024-0.0177 0.21041-0.0355 0.44754-0.0882-0.0874-0.0663-0.11973 0.0284-0.0419 0.0953-0.0339 0.14298-0.0509 0.36209-0.4274 0.77137-0.40085 1.2731-0.31048 0.59714 0.26845 0.88469 0.69919 1.0781 1.309 0.11007 0.61836 0.16899 1.2365 0.31991 1.8477 0.1474 0.5236 0.47704 0.60463 0.91966 0.81041 0.6545 0.18451 1.304 0.3836 1.9607 0.56509 0.43585 0.10211 0.83768 0.32681 1.2195 0.55691 0.60788 0.38488 0.27173 0.50331 0.16378 0.91689-0.0802 0.35434-0.19082 0.70061-0.30308 1.0458-0.0864 0.26558-0.11118 0.33469-0.11798 0.3313-0.0458-0.0229-0.0435-0.0927-0.0653-0.13909-6.0721 3.1166-5.1462 3.4534-4.2282-0.026 0.0172-0.41836 0.51168-1.5059 0.01-1.7897-0.49083-0.32318-1.0691-0.54238-1.618-0.76526-0.81566-0.42447-1.668-0.71588-2.581-0.81059-0.98994-0.12131-1.8645 0.32989-2.7018 0.79958 10.109-6.3914 5.3193-3.0323 3.9912-2.2711-1.7302 0.99172-3.4579 1.9878-5.1956 2.9661-0.37576 0.21153-0.63418 0.2084-1.0351 0.099-0.72242-0.45028-0.78116-1.2739-0.84542-2.0467-0.0846-0.84734-0.0188-1.6813 0.11803-2.5175 0.1738-0.99625 0.2042-2.0084 0.23193-3.0169 0.0293-1.3302 0.0249-2.6608 0.0243-3.9913-0.0145-0.98862 0.07-1.9873-0.19828-2.9492-0.0566-0.2428-0.45884-0.90908-0.7548-0.59626-1.606 1.1178-0.0985 0.0625 4.6079-2.5469 0.0601-0.0333-0.11724 0.0719-0.17627 0.10727-0.18301 0.10959-0.31112 0.22189-0.45881 0.37507-0.29919 0.41245-0.50806 0.87197-0.72933 1.3292-0.22566 0.50869-0.27778 1.0645-0.31128 1.6133-6e-3 0.79864 0.27683 1.4791 0.74967 2.1048 0.5642 0.72396 1.3618 1.1468 2.1808 1.5183 0.91742 0.41767 1.8943 0.69513 2.7528 1.2312 0.73893 0.38884 1.2387 0.99599 1.5664 1.7501 0.16894 0.5193 0.29689 1.0472 0.49515 1.5575 0.0182 0.0177 0.0311 0.0629 0.0544 0.0531 3e-3 -1e-3 0.33102-0.47063 0.13724-0.36508-0.85262 0.46443-6.3546 3.6694-4.5068 2.5932 1.674-0.95471 3.335-1.9326 5.0221-2.8641 0.47082-0.25998 0.9476 0.34524 1.1806 0.65003 0.38518 0.76134 0.61153 1.5862 0.87542 2.3939 0.15841 0.49599 0.38508 0.98096 0.66929 1.4187 0.33409 0.53847 0.41521 1.1656 0.47562 1.7832 0.11401 0.68813-0.0383 1.3582-0.11872 2.0364 4e-3 0.16747 0 0.35356 0.0791 0.50675-5.985 3.7392-3.5451 3.7319-5.8785 1.8976-0.80897-0.48938-1.5608-1.0644-2.3206-1.6252-0.80955-0.60342-1.6214-1.21-2.4853-1.7345-0.40177-0.20844-0.95306-0.82618-1.4483-0.63567-2.0231 1.5517 2.7202-2.9313 4.7375-2.9825 0.55229-0.0865 1.0161-0.47184 1.5299-0.68646 0.13568-0.0696 0.26916-0.14375 0.40701-0.20895 0.98523-0.46598-0.0918 0.0996 0.79989-0.41695 0.11819-0.0685 0.47953-0.26166 0.36121-0.19341-4.7089 2.7167-5.9074 3.5652-4.2543 2.4097 0.0604-0.0475 0.12083-0.095 0.18126-0.14251l5.222-2.1233c-0.0595 0.0578-0.11907 0.11552-0.1786 0.17328-1.9966 1.7589-4.5574 2.8084-6.9308 3.9963-0.54954 0.28456-1.1232 0.58448-1.7585 0.4373-2.4016-0.74473 2.4828-3.8496 4.4675-3.5533 0.58338 0.19486 1.0812 0.541 1.5843 0.88847 0.85149 0.5606 1.6735 1.1656 2.4899 1.7758 0.77341 0.55843 1.5508 1.1099 2.349 1.6323 2.4042 1.9058 0.48737 1.303-3.7485 3.9749-0.0167 0.0105-0.0209-0.0333-0.0314-0.05-0.13478-0.2462-0.1818-0.52569-0.20315-0.80305-0.0103-0.66516 0.30086-1.3012 0.16026-1.9768-0.0394-0.52639-0.0712-1.0755-0.35933-1.5348-0.3075-0.47967-0.54396-1.0194-0.71501-1.5604-0.23866-0.7425-0.4498-1.4972-0.78992-2.2016-0.0863-0.0944-0.14875-0.19932-0.28588-0.22487-0.15677-0.0292-0.33999 0.1607-0.47569 0.19511 1.5514-0.89642 3.1028-1.7928 4.6542-2.6893-1.1042 0.71905-4.5069 4.4707-5.884 2.4962-0.1801-0.50947-0.3379-1.0231-0.46315-1.548-0.26538-0.66218-0.73906-1.1157-1.3702-1.4485-0.86889-0.48005-1.8274-0.76415-2.7212-1.1935-0.88172-0.44264-1.7267-0.94113-2.3302-1.7456-0.53726-0.73232-0.87215-1.5184-0.95049-2.432 0.0156-0.60324 0.0533-1.2086 0.2213-1.792 0.17544-0.47959 0.39145-0.98859 0.6895-1.3964 0.10438-0.27598 0.25935-0.57845 0.52705-0.72969 5.056-2.8566 3.1184-2.9893 5.2354-2.8023 0.53669 0.25178 0.92885 0.62612 1.1052 1.2114 0.31493 1.0121 0.25008 2.0613 0.23884 3.1101 1.6e-4 1.3322 3e-3 2.6644-7e-3 3.9965-0.0164 1.0276-0.0323 2.0586-0.1741 3.0783-0.13652 0.7991-0.27482 1.5833-0.1801 2.3993 0.0236 0.38994-0.069 1.271 0.44493 1.3554 0.27474-0.0598 0.20468-0.0304 0.49712-0.16731 0.11189-0.0524 0.43778-0.22903 0.33121-0.16651-1.4665 0.86024-2.9408 1.7072-4.4117 2.56-0.13446 0.078 0.26829-0.15699 0.40244-0.23548 1.7376-1.0042 3.4753-2.0083 5.2129-3.0125 0.93509-0.42584 1.8678-0.72797 2.9096-0.52608 0.9338 0.17162 1.8094 0.51554 2.6648 0.92383 0.60524 0.25854 1.2593 0.46717 1.7499 0.92247 0.63185 0.71866 0.38473 1.4671 0.23876 2.3414-1.0325 3.8199 0.0696 2.0843-5.7387 5.2441-0.24828-0.51516 0.25511-1.0724 0.34132-1.594 0.0156-0.10384 0.0407-0.2067 0.0465-0.31153 6e-3 -0.1025-0.10835-0.34412-0.0124-0.30771 0.28046 0.10642 0.36468 0.52797 0.12184 0.3226-0.35142-0.20314-0.72181-0.36177-1.1181-0.45643-0.67141-0.20908-1.3646-0.35188-2.0106-0.63366-0.57684-0.27015-0.96903-0.62547-1.1812-1.2415-0.14476-0.60583-0.26043-1.2037-0.30665-1.8256-0.0977-0.37795-0.26303-0.73298-0.71708-0.71789-0.43855 0.0424-0.75671 0.39603-1.197 0.42717-0.5189 0.033-0.68749-0.51193-0.59912-0.93933 0.0642-0.62204 0.13901-1.2441 0.26977-1.8563 0.0959-0.34563 0.12152-0.45518-0.16542-0.228-0.47688 0.20035-0.93197 0.47265-1.4611 0.51054-0.52525-0.18059-0.68027-0.46492-0.46333-0.95301 0.22201-0.63176 0.51257-1.2248 0.75739-1.8426 0.22662-0.62174 0.39127-1.2762 0.4613-1.9338 0.0735-0.46118-0.0446-0.40849-0.51334-0.44013-0.53888 0.0994-1.0775 0.27096-1.6277 0.24984-0.53208-0.0543-0.95462-0.21211-1.0643-0.79375 0.11223-0.52466 0.27585-1.0295 0.63349-1.4445 0.42291-0.57332 0.83605-1.145 1.2644-1.7145 0.39373-0.41978 0.63963-0.94586 0.86241-1.4721 8e-3 -0.0642-9e-3 -0.18946 0.0553-0.18613 0.35737 0.0184-0.89493-0.0101-0.64953 0.0602-0.76747 0.0823-1.5492 0.22238-2.3168 0.0789-0.70244-0.23949-1.2852-0.6623-1.2815-1.4763 0.0799-0.84525 0.53282-1.4571 1.2654-1.8935 1.7418-1.0375 3.5022-2.0433 5.2534-3.0649l-4.3846 3.5073z"/>
		<path d="m281.34 131.86c-0.51348 0.9811-0.92184 2.0078-1.1896 3.0818-0.10104 0.4665-0.25498 1.036 0.22865 1.3074 0.46673 0.0984 0.94253 2e-3 1.3968 0.14855 0.72705 0.45179 0.9045 1.2568 1.0492 2.044 0.043 0.38436 0.21545 1.8227 0.32528 1.3213 0.26188-2.001 0.0906-0.20334-4.5906 2.4112-0.0845 0.0472 0.15282-0.1198 0.21963-0.18977 0.24141-0.2528 0.43789-0.5627 0.64355-0.84402 1.6538-2.2757 5.4182-5.5052 5.8172-1.9321 0.0596 1.0686-0.13102 2.1315-0.24238 3.1917-0.0827 0.49874-0.0949 0.96586 0.0691 1.4436 0.0699 0.2318 0.13504 0.5291 0.35012 0.67279 0.29869 0.19243 0.58354 0.0162 0.88053-0.0678 3.2867-2.0678-6.0176 3.883-3.3676 1.8004 1.7387-1.3479 0.29258-0.24277 5.2465-3.06 0.31821-0.18098 0.52953 0.11254 0.68892 0.34814 0.16724 0.37856 0.16878 0.80026 0.18489 1.2073 0.0573-2.1894-6.5913 3.6647-4.2975 2.0152 1.3055-0.96964 4.3206-4.3245 6.0749-2.5987 0.28654 0.32169 0.32901 0.82704 0.64714 1.1184 0.22799 0.0427 0.87609-0.37885 1.0883-0.5039 0.0897-0.0531 0.3597-0.21114 0.26927-0.15925-1.5119 0.8675-3.0198 1.742-4.5337 2.6061-0.0988 0.0564 0.18937-0.12631 0.28811-0.18272 1.3505-0.77151 3.8168-2.4133 5.7986-3.2219 0.51379-0.2825 1.1808-0.16071 1.677-0.44538 1.7124-1.0036-3e-3 3e-3 -4.4921 2.5567-0.0593 0.0338 0.1179-0.0689 0.1764-0.10412 0.22839-0.13756 0.35674-0.3166 0.52128-0.52587 0.46405-0.63997 0.89974-1.3018 1.3124-1.9762 0.26808-0.46141 0.60039-0.87787 0.85923-1.3448 0.17344-0.32307-0.24677 0.40641 0.19416 0.22706 1.6247-0.66086 3.1325-1.5818 4.7344-2.296 0.13946-0.0622-0.21021 0.22166-0.31986 0.32792-0.40079 0.38836-0.41962 0.38446-0.87402 0.74681-2.5081 1.8437-5.2058 3.4547-8.1464 4.4767-0.9951 0.34209-1.9349 0.52923-2.9806 0.40728-0.65397-0.0417-1.1064-0.23704-1.3862-0.84061-0.18029-0.63335-0.14693-1.3036-0.14563-1.9558-0.0233-0.12619 0.0701-1.2134-0.0508-1.2121-0.36594 0.40168-1.0766 0.46504-1.5786 0.64371-0.927 0.2062-1.8569 0.53855-2.8075 0.59888-0.83185 0.0688-1.6228-0.098-2.4247-0.2874-0.71737-0.22567-1.1866-0.6346-1.5168-1.3019-0.29213-0.75429-0.12859-1.5761-0.0474-2.3575-8e-3 -0.2042 0.11745-0.57279-0.0323-0.767-0.0199-0.0257-0.0632 0.0163-0.0956 0.0177-0.0584 0.18973-7e-3 0.11175-0.14933 0.23761 1.5529-0.87428 3.0953-1.7676 4.6588-2.6228 0.234-0.128-0.27443 0.27758-0.45411 0.48608-0.23103 0.26768-0.0241 0.59233 0.14293 0.83224 0.39434 0.64407 0.942 1.0831 1.5282 1.5424 0.86747 0.67329 1.8594 1.0973 2.9171 1.3593 1.0362 0.28746 2.0375 0.0814 3.0544-0.15567 0.95134-0.24304 1.9309-0.31496 2.9078-0.3631 0.67911-0.0347 1.3595-0.033 2.0393-0.0321 0.54139 0.0155 1.0268-0.2515 1.5038-0.47073-0.12745 0.2086 0.65375-0.33302 0.49421-0.24237-1.545 0.8779-6.2938 3.2589-4.6217 2.6572 3.4031-1.2246 3.2642-3.0498 5.4334-2.7867 0.30303 0.24741 0.55182 0.56932 0.72589 0.91894 0.16351 0.40011 0.34742 0.79074 0.5284 1.1831 0.27839 0.63766 0.23635 1.3091 0.0287 1.9562-0.2939 0.81588-0.78957 1.4364-1.4891 1.9349-2.7029 1.7287-4.8976 3.2917-7.9306 3.7128-1.0427 0.048-2.0457-0.19868-3.0568-0.40528-0.79004-0.0719-1.5147-0.30404-2.2203-0.65521-0.57021-0.34656-0.9946-0.86542-1.4111-1.3765-0.32141-0.34376-0.62319-0.64621-1.0714-0.80512-0.30731-0.21089-0.65288-0.32678-1.0092-0.42272-0.32768-0.0108-0.56218-0.38637-0.68262-0.65622-0.0916-0.22537-0.10729-0.47045-0.12303-0.71054 7.0925-3.8185 3.2346-3.4515 5.4156-2.6407 0.29694 0.1104 0.57155 0.1412 0.87394 0.0365-6.579 3.9716-2.8594 2.7726-6.2404 2.4924-0.74102-0.0323-1.524 0.0691-2.2363 0.28969 1.5779-0.89676 3.1789-1.754 4.7337-2.6903 0.20203-0.12166-0.38651-0.10173-0.0238-0.23748 0.14203-0.0531 0.9356 0.0468 1.0824 0.0527 1.5447 8e-3 3.0822 0.0406 4.6226 0.15721 1.6837 0.16597 3.3798 0.13152 5.0632 0.28439 1.3313 0.1264 2.6532 0.3638 3.9386 0.73132 0.53171 0.11812 0.99317 0.30606 1.4255 0.63115 0.11318 0.0855 0.2165 0.1807 0.29974 0.29519-4.2204 3.9442-3.3941 2.3401-5.7337 3.4034-0.75676 0.32117-1.5681 0.49337-2.3305 0.79254-0.64497 0.25917-1.332 0.31334-1.979 0.0474-0.52446-0.21064-0.77526-0.67292-0.89614-1.1958l4.9759-2.6497c0.0395 0.36737 0.1883 0.5773 0.56666 0.65918 0.6201 0.067 1.188-0.0754 1.7631-0.31304 0.78727-0.24212 1.564-0.51252 2.334-0.80531 2.1173-0.60637 4.4454 0.0498-3.5794 2.9454-0.0227-0.0183-0.14218-0.11615-0.18782-0.14777-0.38524-0.25635-0.84537-0.35147-1.2798-0.49565-1.2531-0.3502-2.5462-0.55584-3.842-0.66485-1.6823-0.11257-3.3702-0.13665-5.0506-0.28711-1.5535-0.0991-3.106-0.0891-4.6617-0.11925-0.53842-0.0374-1.1955-3e-3 -1.5498-0.49775-1.1311-1.5802 4.0652-8.7651 4.7978-3.3119 0.77017-0.11094 1.5436-0.2416 2.3226-0.11679 3.5054 0.52193 1.5541 2.3361-2.8805 4.1089-0.35372-0.048-0.66836-0.13546-1.0033-0.26127-1.9902-0.7476-0.23005-0.14097 4.2995-3.0694-8e-3 0.17582-0.0127 0.357 0.0188 0.52992 0.0614 0.1967 0.25453 0.17491 0.42238 0.23637 0.35806 0.13583 0.69676 0.30724 1.037 0.48199 0.47271 0.25835 0.84241 0.63172 1.1982 1.0322 0.3629 0.45055 0.74663 0.90546 1.2758 1.1649 0.67762 0.30516 1.397 0.43457 2.1269 0.55622 0.9634 0.20224 1.9397 0.38638 2.9274 0.24602 2.5803-0.48605 6.0309-2.7829-1.7644 1.6874 0.75104-0.45192 1.2708-0.76146 1.602-1.6257 0.26781-0.46873 0.38918-1.0137 0.17875-1.5317-0.18229-0.3886-0.37798-0.7719-0.53797-1.1695-0.0473-0.10559-0.26043-0.53427-0.37275-0.36887-0.0933 0.0229-0.35573 0.14109-0.27273 0.0928 1.5478-0.90036 6.1801-3.6192 4.6539-2.6828-2.4348 1.4938-3.5176 2.3035-5.5451 3.1205-0.52096 0.21519-1.078 0.31452-1.642 0.28495-0.66717 8e-4 -1.3346 5e-3 -2.0008 0.0456-0.96059 0.068-1.9135 0.19264-2.8497 0.42502-1.0763 0.20941-2.1437 0.26584-3.2077-0.0649-1.1014-0.33447-2.1362-0.82545-3.0491-1.5365-0.62868-0.49032-1.1986-1.0021-1.6428-1.671-0.29469-0.42689-0.48903-0.87154-0.43897-1.4032 0.0756-0.18109 0.22193-0.51611 0.39939-0.62512 0.0597-0.0367 3.6151-3.8463 5.4415-2.8426 0.39714 0.34207 0.50757 0.81698 0.41992 1.3303-0.0736 0.67991-0.25218 1.4079-0.0917 2.0774 0.24572 0.52577 0.68805 0.75113 1.2443 0.87833 0.75814 0.16762 1.524 0.24251 2.2989 0.13616 0.92501-0.17866 1.8478-0.39586 2.7451-0.68358 0.63926-0.18597 1.3766-0.59922 1.9744-0.13473 0.35589 0.48173 0.23524 1.0146 0.22989 1.5904-3e-3 0.58133-0.0201 1.1678 0.0579 1.7451 0.12203 0.37346 0.73599 0.26797 1.0348 0.3328 0.97025 0.0257 1.905-0.25802 2.814-0.57519 0.40031-0.14822 0.74713-0.26689 1.1337-0.44809 0.19188-0.0899 0.74779-0.39856 0.56518-0.29105-7.717 4.5438-4.7512 2.8562-3.1476 1.765 1.7024-1.2057 5.8981-5.8144 6.6517-3.4918 0.0111 0.034-0.0288 0.0654-0.0432 0.0981-0.24085 0.49691-0.52805 0.95948-0.88434 1.383-0.38124 0.70773-0.85683 1.3516-1.266 2.0418-0.16182 0.21054-0.28432 0.46611-0.44765 0.66987-1.2729 1.5882-3.415 2.4959-5.3846 3.082-0.5619 0.0826-1.1102 0.23326-1.6255 0.47659-0.45927 0.22526-0.66586 0.32662-0.6616 0.32413 9.7069-5.6928 1.6629-0.8734-1.1536 0.65205-0.55684 0.22318-1.0496 0.39365-1.5261-0.0891-0.24755-0.3164-0.38608-0.69289-0.5928-1.0332-0.14581-0.0633-0.22926-0.0855-0.37775-0.0133-0.0489 0.0238-0.1897 0.10602-0.14287 0.0785 4.7234-2.7779 5.9871-3.8935 4.4553-2.5645-1.6705 1.4516-4.7152 4.9761-5.9687 2.6498 9e-3 -0.29669-6e-3 -0.59319-0.0114-0.88895 0.0931 0.19492-0.38357 0.39043-0.22159 0.29652 4.6626-2.7032 6.2303-3.4352 4.3777-2.5605-1.9484 1.4816-4.0135 2.9838-6.3546 3.6892-0.45281 0.0567-0.87313-0.053-1.2037-0.38157-0.22363-0.26018-0.41879-0.55381-0.47953-0.89613-0.18987-0.55845-0.27668-1.0942-0.14934-1.6828 0.12595-1.0233 0.30999-2.0531 0.28848-3.0849-0.014-0.19603-0.0497-0.39098-0.0498-0.58753 0-0.0159 0.01 0.0495 0.0233 0.0416 1.5852-0.89773 3.1501-1.831 4.732-2.7346 0.15822-0.0904-0.74498 0.49018-0.38158 0.39132-1.4282 1.8689-3.0837 5.1106-6.0985 4.041-0.55483-0.49238-0.55118-1.1833-0.61299-1.8837-0.0802-0.50166-0.12292-1.3042-0.7231-1.4536-0.53309-0.0273-1.089-0.0379-1.5412-0.35921-0.55775-0.50773-0.6875-1.1588-0.5165-1.8911 0.26422-1.1059 0.63863-2.1677 1.1323-3.1939l5.1156-2.3145z"/>
		<path d="m297.12 156.44c-0.86569 0.70102-1.7818 1.3351-2.6145 2.0763-0.3764 0.32032-0.75303 0.64625-1.0601 1.0354-0.27379 0.3524-0.49025 0.74329-0.68998 1.1417-0.24302 0.39677-0.39659 0.85601-0.66059 1.2373-0.19685 0.30462-0.40132 0.63629-0.68741 0.86504-0.25027 0.19012-0.35497 0.4663-0.53904 0.70797-0.1279 0.0994-0.21688 0.15685-0.28011 0.32069-0.0653 0.13429-0.0482 0.29712-0.0585 0.44418-0.15399 0.50837-0.25572 1.0282-0.31147 1.5559-0.0421 0.43804-0.0513 0.87849-0.052 1.3183-0.0307 0.37262 4e-3 0.70768 0.12721 1.058 0.12811 0.34432 0.14335 0.7118 0.29154 1.0472 0.10118 0.28508 0.26668 0.52168 0.4176 0.77794 0.11705 0.27909 0.31908 0.50489 0.45712 0.77077 0.0883 0.31257 0.25688 0.58311 0.39206 0.87604 0.0996 0.11209 0.22762 0.1863 0.36777 0.23253 0.22965 0.17666 0.5553 0.26636 0.83608 0.40265 0.38002 0.17824 0.67545 0.4694 1.0714 0.61271 0.28538 0.049 0.57238 0.0427 0.8604 0.0387 0.35232 2e-3 0.69808-0.0652 1.0156 0.10102 0.53756 0.28184 0.43593 0.14771 0.89281 5.3e-4 0.33457-0.0996 0.69342-0.1038 1.0409-0.10802 0.3425-7e-3 0.68516-5e-3 1.0278-5e-3 0.26307-2.5e-4 0.52615 1e-3 0.78925 1e-3 0.21653 9e-5 0.43304 2.7e-4 0.64955-2e-3 1.8815-0.0261 1.3963-0.56155-4.692 2.6556-0.0506 0.0268 7e-3 -0.13231 0.0554-0.16262 4.3679-2.725 3.273-2.2269 5.2453-3.1054 0.0786-0.0191 0.16004-0.029 0.2359-0.0572 0.11205-0.0416 0.98806-0.53599 0.44836-0.22588-1.5316 0.88006-3.0675 1.7527-4.6017 2.6284-0.0714 0.0408 0.14232-0.0825 0.21352-0.12368 1.6792-0.97087 3.3584-1.9416 5.0376-2.9125-8.3086 4.7308-5.378 3.2482-3.6862 2.0265 1.7162-1.391 2.8231-1.7874 5.4636-3.2872 1.5122-0.85889-5.8385 3.7339-4.5301 2.5881 1.7708-1.3201 3.7011-2.226 5.68-3.3561-7.9132 5.3345-5.6612 3.3024-3.9225 2.1628 0.28625-0.34027 0.63727-0.61771 0.96348-0.91802 0.34126-0.30308 0.60555-0.67967 0.87384-1.047 0.17727-0.30958 0.46781-0.53607 0.6687-0.82305 0.17849-0.30816 0.32901-0.64068 0.53695-0.92739 0.24064-0.44824 0.49866-0.88738 0.77025-1.3193 0.1533-0.35448 0.38246-0.66158 0.58166-0.99012 0.031-0.0638 0.0791-0.13066 0.11941-0.18265 6.8189-3.2607 5.8454-3.2549 4.3529-1.2379-0.39458 0.51106-0.72316 1.0667-1.0446 1.6251-0.26649 0.4762-0.51742 0.96029-0.73279 1.4617-0.23104 0.41089-0.36997 0.85359-0.47138 1.3108-0.17886 0.45731-0.3084 0.92558-0.52925 1.3654-0.25964 0.45604-0.62135 0.83861-0.97756 1.2193-0.38761 0.30254-0.73972 0.64462-1.1347 0.93832-0.26771 0.25656-0.59677 0.41922-0.87945 0.65162-1.5668 1.4742-4.0238 2.4797-5.6711 3.428 0.29578-0.0526-0.91805 0.42896-0.61306 0.25148 1.5507-0.90241 6.1673-3.661 4.6832-2.6529-1.5952 1.0835-3.3142 1.9754-5.0173 2.8799-1.5788 0.83843 3.0961-1.7878 4.6441-2.6817-2.9576 1.9287-10.268 5.9233-0.61394 0.4148 0.0771-0.044-0.14293 0.10583-0.21989 0.14994-4.6529 2.6662-3.3839 1.9951-5.353 3.0307-3.8976 2.2468 16.196-9.3421-0.79531 0.45514-1.504 0.86722 3.0083-1.7341 4.5138-2.5988 0.0921-0.0529-0.18137 0.11046-0.27342 0.1634-1.6958 0.97525-3.3935 1.9474-5.0902 2.9212-0.10121 0.0304-0.20704 0.0482-0.30361 0.0911-0.7946 0.35275 0.31766-0.0393-0.50464 0.2699-0.27101 0.10193-0.5198 0.15081-0.77737 0.28787-0.40619 0.23151-0.89157 0.3213-1.3552 0.35163-0.0603 4e-3 -0.12351-7e-3 -0.18095 0.0113-0.0579 0.0189-0.0989 0.0726-0.1542 0.098-0.26839 0.12338-0.56991 0.16855-0.85691 0.22425-0.42637-0.0289-0.72795 0.15782-1.1096 0.29661-0.27411 0.12185-0.60153 0.0419-0.87966 0.11342-0.1469 0.0378-0.27445 0.1305-0.41741 0.18121-0.36877 0.14378-0.7625 0.19465-1.1545 0.21916-0.32277 2e-3 -0.64548 5.3e-4 -0.96824 5.3e-4 -0.26234-0.037-0.57931-0.29553-0.76478-0.48902-0.20532-0.17024-0.32036-0.50778-0.5769-0.60132-0.23971-0.25595-0.49569-0.48007-0.79041-0.67235-0.26226-0.30449-0.54015-0.60768-0.73507-0.96051-0.16711-0.29948-0.21468-0.62885-0.23797-0.9652-0.01-0.34463-0.0116-0.68962-8e-3 -1.0344 0.0262-0.30129-0.13563-0.56014-0.2303-0.83704-0.0741-0.32995-0.26974-0.60588-0.37785-0.9264-0.12845-0.43496-0.15422-0.8889-0.0693-1.3332 0.13031-0.39472 0.21572-0.79833 0.28266-1.2077 0.16367-0.40021 0.27614-0.81261 0.34647-1.2384 0.11123-0.52353 0.22481-1.0601 0.42844-1.5569 0.21098-0.42951 0.26672-0.90807 0.41957-1.3561 0.0867-0.23844 0.21881-0.44786 0.28602-0.69299 0.45061-1.8069 3.6862-1.7324 5.0299-2.3262-0.21564 0.63001-0.27181 1.299-0.312 1.9594-0.0587 0.62124-0.0241 1.2224 0.11832 1.8276 0.092 0.55936 0.21389 1.1035 0.36346 1.6499 0.10528 0.4812 0.20021 0.94836 0.37309 1.4097 0.18442 0.25212 0.26085 0.59386 0.54721 0.74451 0.26792-0.0131 0.44366 0.15763 0.68374 0.27975 0.33917 0.0239 0.58915 0.19793 0.86521 0.37763 0.29218 0.1799 0.45943 0.47749 0.70469 0.70795 0.25422 0.0803 0.39728 0.41886 0.64916 0.48617 0.26223 0.13558 0.47807 0.30633 0.76793 0.38589 0.30554 0.0283 0.6124 0.0305 0.91905 0.0278 0.12761-0.23281 0.40624-0.19522 0.60389-0.29909 0.0566-0.0298 0.0915-0.0894 0.13721-0.13414 0.0639-0.0314 0.12782-0.0628 0.19172-0.0942 3.7067-2.0866-16.269 9.3438 0.59155-0.33252 1.5351-0.88096-3.0632 1.774-4.6017 2.6489-0.15039 0.0855 0.28332-0.19867 0.42752-0.29425 1.9444-1.3366 3.9748-2.3828 6.0685-3.5853-1.5459 0.88664-11.354 6.5215 0.43358-0.28026 0.069-0.0398 0.14189-0.0726 0.21283-0.10886 0.0786-0.0223 0.16298-0.0298 0.23574-0.0669 0.0666-0.034 0.11581-0.0948 0.17373-0.14217 0.0708-0.0346 0.14163-0.0693 0.21246-0.10393 0.41767-0.13863 0.7376-0.42185 1.1734-0.52755 0.42011-0.0341 0.7294-0.29665 1.1427-0.38384 0.36478-0.0659 0.6188-0.37006 0.97422-0.4665 1.9236-0.35679 0.23304-0.0605-4.5478 2.6428-0.29832 0.16867 0.1339-0.10643 0.23746-0.13368 1.1663 2.1826 0.0848 0.65896 4.8957-2.0011 0.1093-0.0604-0.18407 0.1689-0.27498 0.25454-0.3016 0.28408-0.60174 0.56638-0.9134 0.83953-0.54081 0.54738-1.1382 1.0319-1.7371 1.5133-0.44667 0.3568-0.9199 0.67745-1.3743 1.024-13.259 7.6218-0.4699 0.25209-0.35404 0.18612 0.0593-0.0338-0.10692 0.0848-0.16174 0.12548-0.13576 0.10063-0.27448 0.18829-0.42167 0.2708-1.8985 1.3847-3.9769 2.5951-6.1364 3.5295 0.93527-0.56424-2.3022 1.2605-1.3529 0.71408 4.6586-2.6817 5.9526-3.5062 4.2273-2.414-0.34534 0.2209-0.65911 0.48554-0.9679 0.75384-1.8811 1.1172-6.8043 3.3739-4.5268 1.5328 0.6775-0.54893 1.3986-1.041 2.1146-1.5376 0.59548-0.48339 1.204-0.94997 1.8094-1.421 1.7373-1.2064 3.6902-2.1595 5.5064-3.1659 0.14232-0.0789 0.37682-0.081 0.53417-0.0818 0.46342-0.0157 0.53224 0.11593 0.91048-0.18608 0.15775-0.19332 0.57992-0.0554 0.74481-0.17338 0.0396-0.0284 0.0404-0.0888 0.0606-0.13315-15.006 8.7394 4.3951-2.9633-0.38225 1.5705-0.34324 0.31078-0.69445 0.6126-1.0401 0.92077-0.28705 0.25396-0.11396 0.19502-0.42675-0.4488 0.33475-1.9131 0.0652-0.15269-4.6515 2.5182-0.0833 0.0472 0.16434-0.0985 0.24308-0.15286 0.26397-0.18237 0.50784-0.39772 0.75448-0.60216 0.49985-0.40472 1.0164-0.789 1.515-1.1956 0.39516-0.28433 0.76134-0.58992 1.0924-0.94802 0.35483-0.23235 0.59037-0.57192 0.81894-0.92034 0.29776-0.36132 0.66376-0.65857 1.0024-0.98027 0.3718-0.26906 0.76317-0.50845 1.126-0.78959 0.19543-0.2005 0.44554-0.38282 0.63567-0.58918-8e-5 -0.23689 0.22344-0.25111 0.32109-0.40445 0.23776-0.37328-0.0823 0.0312 0.16016-0.26133 1.4808-1.3938 0.0788-0.0861 5.0818-2.9493 1.8891-1.0811-4.4798 4.7842-4.5889 2.7202 0.0284 0.0466-0.0558-0.28792-0.0838-0.43677 0.0436-0.2294 0.20743-0.13876 0.31859-0.3306 0.10638-0.14836 0.0863-0.31367 0.0856-0.49535 0.0127-0.22333 0.22093-0.32023 0.30771-0.46336 0.0312-0.0746 0.0469-0.15442 0.0672-0.23217 6.2221-3.272 5.7851-3.3299 4.3644-1.3637-0.19571 0.36368-0.43132 0.70747-0.62354 1.0721-0.14322 0.20019-0.0997 0.43172-0.12883 0.67037-0.0792 0.20906-0.0296 0.42934-0.11382 0.63541-0.27845 0.40233-0.61238 0.7732-0.9384 1.1395-0.27189 0.40075-0.65431 0.68026-1.0476 0.94939-1.6594 0.95802-3.3134 1.9255-4.9782 2.8741-1.5589 0.88824 3.1056-1.7977 4.6605-2.693 0.0525-0.0302-0.10084 0.0673-0.15317 0.0978-1.6631 0.96898-3.357 1.8866-4.9931 2.9006-1.4749 0.91404 5.9397-3.5818 4.5139-2.593-0.24564 0.25095-0.56481 0.40685-0.85051 0.608-1.6806 0.95485-3.3628 1.9068-5.0417 2.8645-0.11663 0.0665-0.45548 0.28431-0.33931 0.21701 1.5592-0.90342 3.1073-1.826 4.673-2.7181 0.10858-0.0619-0.18201 0.17137-0.27567 0.2541-0.29528 0.2374-0.58029 0.48751-0.85606 0.74725-0.26159 0.24507-0.51591 0.49788-0.76862 0.75207-1.6771 1.4306-4.1027 2.5068-5.7994 3.4848 1.555-0.89797 6.1707-3.6722 4.665-2.6939-16.626 10.802 2.8443-2.8059-0.69863 0.43309-0.0335 0.029-0.0621 0.0651-0.1006 0.0871-1.6767 0.96004-3.3628 1.9035-5.0427 2.8578-0.23383 0.13286-0.43846 0.27829-0.68831 0.38044-0.42164 0.15625-0.81867 0.37202-1.2428 0.54347-0.47813 0.33204-1.0283 0.45127-1.5914 0.53853-0.49054 4e-3 -1.0314 0.14773-1.4886-0.0583-0.21261-0.11485-0.39915-0.26719-0.52898-0.47166-0.0897-0.13002-0.10049-0.20869-0.0808-0.34874-9e-3 -0.53311 0.0329-1.0451 0.18127-1.5579 0.15198-0.45792 0.44773-0.82167 0.70816-1.2163 0.205-0.19093 0.44188-0.38218 0.51196-0.65973 1.6833-0.92998 3.3604-1.8712 5.0498-2.7899 0.30216-0.1643 0.40643 0.22983 0.50811 0.41571 0.0241 0.12081 0.0122 0.24394 6e-3 0.3658-4e-3 0.0196 0 0.0394 3e-3 0.0587l-5.1005 2.4744c3e-3 -4e-3 0.023-0.0171 0.0161-0.0296 0.018-0.083 0.0241-0.17095 0.0571-0.24881 0.0752 0.10872 0.2422 0.20233 0.21691 0.3321-0.0124 0.0633-0.23421 0.10668-0.17841 0.0744 1.5632-0.90361 3.134-1.7941 4.701-2.6912-0.0402-0.0182-0.0768-0.0593-0.12068-0.0545-0.037 4e-3 -0.38444 0.56867-0.4486 0.60691-0.34774 0.18314-0.62293 0.67779-0.80592 1.0168-0.27638 0.40734-0.29173 0.86848-0.25855 1.348 0.0151 0.22095 0.0381 0.20291-0.0695 0.0507 0.0814 0.0661 0.17124 0.10813 0.27843 0.11643 0.44537-0.0443 0.90016-0.0171 1.3369-0.1359 0.53787-0.13589 1.0179-0.39777 1.519-0.62882 0.41116-0.18625 0.81714-0.38452 1.2267-0.56956 3.1418-1.8315-5.3044 3.8413-3.8118 2.2978 1.7191-1.2104 0.11443-0.086 5.1236-3.0566 0.076-0.0451 0.30366-0.181 0.22725-0.13659-1.5563 0.90465-6.2048 3.653-4.6664 2.7183 1.6419-0.9975 3.3178-1.9379 4.9768-2.9068-9.1982 5.3237-5.4493 3.0571-3.8066 2.215 0.25553-0.25416 0.5094-0.51 0.76412-0.765 0.27654-0.2665 0.55133-0.53419 0.84214-0.7854 2.3025-1.769 11.263-6.4888 0.96538-0.64734 0.27909-0.20905 0.5437-0.44315 0.87622-0.56187 1.4695-1.594-0.95136 1.0048 5.1089-3.0751 1.4889-1.0023-3.0962 1.8167-4.651 2.7134-0.0542 0.0313 0.0937-0.0844 0.14761-0.11617 1.6583-0.977 3.3799-1.851 4.9875-2.9093 1.5043-0.99024-3.118 1.8032-4.677 2.7048 0.40937-0.21401 0.78481-0.45497 1.1338-0.758 0.26694-0.39621 0.58399-0.76313 0.94028-1.0858 0.0254-0.0244 0.0511-0.0487 0.0766-0.0731 0.0309 1e-5 0.068 0.0186 0.0928 3e-5 0.0607-0.0454-0.0143-0.31989 0.0196-0.38395 0.10261-0.27392 0.052-0.50525 0.0956-0.77599 0.15812-0.41416 0.41185-0.75327 0.60582-1.1521 0.95506-1.7204 5.0912-5.3584 5.8484-3.4531 6e-3 0.11711-6e-3 0.23364-0.0212 0.34993-0.0267 0.25852-0.0505 0.38149-0.26959 0.54952-0.20211-0.0118-0.0436 0.31595-0.0965 0.45959-0.048 0.18187-0.0167 0.5326-0.25665 0.46861-0.2205-0.22169-0.14634-0.13702-0.0929 0.0757 3e-3 0.0407 0.0437 0.0985 0.0103 0.12216-4.4337 3.1433-8.1746 5.2476-0.17211 0.58136 0.0307-0.0179-0.0662 0.0263-0.0993 0.0394-0.0772 0.0308-0.17521 0.0214-0.23731 0.0767-0.14317 0.12746-0.0593 0.37546-0.33867 0.36518-0.0346 0.10474-0.043 0.22159-0.10213 0.31473-0.119 0.18761-0.43923 0.20698-0.45333 0.4824-0.35621 0.30027-0.71639 0.58893-1.1195 0.82591-0.40783 0.20302-0.68471 0.5875-1.052 0.85469-0.33854 0.28515-0.45877 0.70967-0.7778 1.019-0.4341 0.2327-0.64167 0.74232-1.1073 0.93686-0.49536 0.42067-1.0254 0.79759-1.5089 1.2282-1.9117 1.2484-3.6494 4.4382-6.1757 3.6121-0.3938-0.62857-0.51895-0.45282-0.20727-0.72232 0.35721-0.3098 0.71027-0.62453 1.0743-0.92628 0.21024-0.18089 0.59463-0.61584 0.82762-0.72832 8.8197-4.2577 5.3402-2.4397 0.35618 0.57995-0.30287-0.0136-0.56062 0.1492-0.83632 0.26267-0.32652 0.0544-0.66783-0.0241-0.99134 0.0802-2.849 1.0884 6.4733-3.7413 3.7032-2.2078-0.64987 0.40189-1.2322 0.92579-1.8255 1.4039-0.6722 0.5505-1.4436 0.97159-2.1146 1.5251-1.4567 1.1196-7.4164 4.5623-5.9224 2.7026 0.30359-0.30218 0.63519-0.57453 0.96359-0.84891 2.1171-1.504 4.4407-2.6988 6.7602-3.8584 2.9441-1.5764-6.1955 3.6467-3.5088 2.0559 0.17666-0.16234 0.38219-0.26795 0.58886-0.3894 6.4383-3.7833 6.7193-3.9304 0.33843-0.2447 0.51495-0.22947 0.96072-0.64727 1.4047-0.98662 0.64231-0.40206 1.2212-0.92969 1.7709-1.4467 0.29517-0.29314 0.61608-0.54012 0.91204-0.83252 1.5732-1.5544 4.519-5.2381 5.7242-2.7534 0 0.1136-0.0492 0.31306-0.15513 0.37658-3.6617 2.1947-3.3302 2.0122-5.1078 2.9827-0.31017 0.20312-0.65114 0.3224-1.0081 0.41684-0.36986 0.16701-0.74303 0.27367-1.123 0.40814-0.37248 0.2074-0.75015 0.38408-1.1272 0.58044-0.20363 0.11915-0.41514 0.19834-0.61955 0.31584-0.0674 0.0387-0.26885 0.15581-0.20167 0.11682 6.0855-3.5314 6.3166-3.6626-0.45426 0.25602 8.2052-4.7718 5.2759-3.2298 3.5856-1.975-0.14748 0.0878-0.29361 0.1779-0.44157 0.2649-16.6 9.7601 11.351-6.5962-5.6298 3.2827-0.32139 0.17578-0.74332 0.34489-1.1101 0.30684-0.34975-0.0183-0.70506-0.0454-1.0308-0.18527-0.29057-0.13745-0.55058-0.3305-0.83341-0.48202-0.23554-0.19971-0.47387-0.3904-0.70832-0.5901-0.20365-0.21192-0.3706-0.45806-0.63876-0.5955-0.26821-0.15384-0.57189-0.19289-0.84317-0.34447-0.24985-0.13346-0.51231-0.16736-0.73623-0.35945-0.31308-0.28713-0.48305-0.66617-0.70128-1.0257-0.17439-0.48063-0.31639-0.95095-0.38875-1.4592-0.14666-0.55373-0.30951-1.0931-0.37354-1.665-0.15431-0.65552-0.25821-1.2935-0.18383-1.971 0.0262-0.70506 0.0869-1.4085 0.23479-2.0998 0.4844-0.25602 5.4545-4.725 5.1646-2.5242-0.0462 0.28121-0.0881 0.55686-0.25763 0.79419-0.21878 0.43516-0.27215 0.89839-0.42309 1.3612-0.0626 0.14432-0.15894 0.27346-0.21294 0.42123-0.11636 0.31844-0.11726 0.68522-0.27887 0.99174-0.0375 0.45798-0.1143 0.91913-0.29146 1.3454-0.22178 0.33078-0.10306 0.82003-0.298 1.1808-0.14277 0.34777-0.17302 0.67056-0.0732 1.0424 0.0835 0.3274 0.31511 0.58636 0.37636 0.9172 0.099 0.33318 0.30793 0.64498 0.31229 0.99551 8e-5 0.33639-9e-3 0.67278-4e-3 1.0092 4e-3 0.25297-4e-3 0.50809 0.11276 0.74013 0.14851 0.27758 0.37296 0.52564 0.59984 0.74076 0.27877 0.2098 0.53613 0.44442 0.79748 0.67407 0.21807 0.1993 0.39479 0.43453 0.60405 0.64239 0.2242 0.11529 0.29035 0.22006 0.54361 0.15418 0.30887 2.7e-4 0.6196-7.9e-4 0.9254-0.0492 0.36899-0.0631 0.72393-0.18264 1.0786-0.29956 0.42535-0.12106 0.88284-0.11739 1.2906-0.31199 0.37931-0.13034 0.75745-0.15795 1.1483-0.2452 0.40659-0.10882 0.79373-0.28402 1.2195-0.29965 0.43876-0.10731 0.85532-0.254 1.2583-0.46066 0.53739-0.18292 1.0448-0.43296 1.5547-0.67986-1.5147 0.87804-3.0272 1.76-4.5442 2.6341-0.0935 0.0539 0.18023-0.11904 0.27358-0.17323 1.7021-0.98827 3.4012-1.9819 5.1127-2.954 1.5189-0.86275-6.0581 3.4816-4.5351 2.626 6.4615-3.63 3.2706-2.0272 5.3449-3.0649 0.0948-0.0452 0.37497-0.18856 0.28438-0.13549-1.5224 0.89173-3.055 1.7657-4.5806 2.652-0.075 0.0436 0.15383-0.0802 0.22873-0.12379 1.6771-0.97719 3.3567-1.9502 5.0273-2.9386 1.4614-0.86469-6.3534 3.7948-4.404 2.5605 1.6624-0.98323 3.4713-1.7529 4.9872-2.9497 1.4029-1.1077-6.275 3.4134-4.6451 2.6796 1.756-0.79053 3.3499-1.9006 5.025-2.8506 0.18526-0.10506 0.37447-0.20222 0.56097-0.30502-1.5338 0.88793-3.0684 1.7744-4.6014 2.6638-0.0417 0.0242 0.0851-0.0452 0.12756-0.0681 0.0992-0.0536 0.21574-0.0811 0.30014-0.15579 0.0436-0.0386 0.0497-0.11104 0.0966-0.14549 0.0379-0.0279 0.0924-0.0181 0.13861-0.0272 0.10057-0.11847 0.22328-0.31142 0.35155-0.39583 0.16415-0.10801 0.38947-0.14148 0.51555-0.32609 0.38597-0.31081 0.79703-0.57415 1.1365-0.93271 0.43251-0.23973 0.73461-0.67033 1.0546-1.0396 0.29675-0.3836 0.43079-0.80482 0.56872-1.2635 0.24749-0.39878 0.16626-0.96497 0.4523-1.3662 0.2794-0.47578 0.4458-1.0189 0.72324-1.4985 0.33936-0.56528 0.64932-1.1429 1.0179-1.6905 1.7557-2.1826 0.46156-1.7012 5.9814-3.3212-0.0259 0.0812-0.0694 0.15648-0.11506 0.23004-0.1976 0.33543-0.42524 0.64392-0.61077 0.97536-0.21635 0.46873-0.57589 0.8625-0.74758 1.3441-0.0312 0.0601-0.0624 0.12014-0.0936 0.18021-0.0395 0.0321-0.0921 0.0528-0.1185 0.0963-0.11478 0.18905-0.15769 0.44326-0.33967 0.6036-0.13558 0.376-0.3668 0.6258-0.63654 0.92067-0.29025 0.37581-0.55372 0.76677-0.83614 1.1392-0.31771 0.29944-0.63269 0.60252-0.97964 0.86865-1.1127 1.9473-6.6124 0.0307-5.6886 3.5512 7.984-4.5992 5.6755-3.4268 3.9782-2.2475-1.6533 0.9775-5.0297 2.9735-5.1082 3.0373-1.3953 1.1334 3.1082-1.8069 4.6624-2.7103-0.0615 0.026-0.12835 0.0416-0.18433 0.0779-0.0132 8e-3 -0.3016 0.28234-0.30647 0.28696-1.8364 1.4254-4.0345 2.2199-5.9454 3.5963 1.5335-0.89074 3.0625-1.7891 4.6004-2.6722 0.0736-0.0423-0.13301 0.10664-0.20651 0.14915-1.685 0.97447-3.3739 1.9421-5.0678 2.9011-0.21574 0.12215-0.47313 0.1503-0.68077 0.28997-0.0684 0.0354-0.27075 0.14627-0.20508 0.10612 11.974-7.3218-0.3678 0.30806-0.57486 0.31863-0.21434-3e-3 -0.42868-3e-3 -0.64302-3e-3 -0.26212-7.9e-4 -0.52427-7.9e-4 -0.78642-2e-3 -0.33491 5.3e-4 -0.67016 3e-3 -1.0043 0.0281-0.33428 0.0356-0.66099 0.0961-0.98372 0.19079-0.38257 0.0642-0.69909-0.13686-1.0606-0.23329-0.307 0.0507-0.6251 0.0112-0.93504 0.0132-0.34131-0.0205-0.67995-0.072-0.98999-0.22554-0.36322-0.19507-0.67834-0.4699-1.0646-0.62443-0.29126-0.13114-0.61939-0.2465-0.87453-0.41014-0.21365-0.15612-0.41108-0.33247-0.55055-0.56108-0.12369-0.28778-0.31382-0.54243-0.37875-0.85136-0.12485-0.25675-0.33901-0.46465-0.43693-0.7377-0.16655-0.27311-0.34023-0.52893-0.44643-0.83416-0.16568-0.35551-0.22863-0.70868-0.31395-1.0906-0.1455-0.40841-0.27279-0.7888-0.21847-1.23 4e-3 -0.45669 5e-3 -0.91357 0.0373-1.3694 0.0497-0.54852 0.10785-1.0975 0.2635-1.6282 0.0963-0.14461 0.0532-0.25484 0.0534-0.41555 0.0198-0.19397 0.0238-0.48361 0.16002-0.61046 0.0791-0.065 0.26202-0.16912 0.31049-0.25497 0.0835-0.14789 0.0735-0.33838 0.2381-0.45235 0.33118-0.4556-0.0949 0.0736 0.26871-0.22763 0.13904-0.11522 0.31779-0.4176 0.46177-0.54315 0.0358-0.0599 0.0716-0.11984 0.1074-0.17977 0.0448-0.0394 0.10141-0.0686 0.13454-0.11824 0.17761-0.26612 0.20966-0.63927 0.45394-0.87359 0.18601-0.42128 0.3873-0.84623 0.64159-1.2262 0.28215-0.44986 0.61775-0.84996 1.037-1.1776 0.85487-0.71228 1.6891-1.4488 2.6135-2.0772l5.2022-2.1082z"/>
		<path d="m234 208.09c0.58324-1.2042 1.3724-2.2737 2.1664-3.3419 0.5156-0.79506 1.2288-1.4145 1.8585-2.1112 0.42638-0.48686 0.85297-0.97319 1.2993-1.442 0.50953-0.53673 1.0415-1.0515 1.562-1.5774 0.60132-0.61452 1.207-1.218 1.8579-1.7794 3.8095-2.8112 7.911-4.7538 12.156-7.2002 0.1283-0.0379 0.26008-0.0654 0.38484-0.11359 0.30371-0.11728 0.37909-0.2111 0.67542-0.3294 0.32833-0.13109 0.64879-0.15223 0.97206-0.30139 0.52681-0.28461 1.1007-0.30945 1.6838-0.3064 0.4509-0.3072 1.0254-0.34894 1.5571-0.36468 0.49533-0.0809 1.0624 0.12902 1.5024-0.13268 0.31054-0.23133 0.7031-0.13228 1.0475-0.21797 0.19095-0.0475 0.35949-0.16024 0.54107-0.236 0.5569-0.16561 1.1358-0.1671 1.7104-0.18638 0.57269-0.0468 1.0722 0.2316 1.6253 0.35168 0.47836 0.0599 0.9616 0.0532 1.4427 0.0507 0.464-5e-3 0.928-9e-3 1.392-9e-3 0.4994 7.9e-4 0.98486-0.0646 1.4488 0.13138 0.41913 0.18138 0.8677 0.25879 1.322 0.2609 0.37436 0.29703 0.7766 0.34445 1.2296 0.37759 0.49909 5.3e-4 0.99817-4e-3 1.4972-6e-3 0.39306 0.15867 0.77366-0.20162 1.0492-0.21477 0.23653-0.0113 0.46828 0.0712 0.7031 0.10191 0.71451 0.0817 1.4342 0.0973 2.1525 0.10948 0.37489 0.0804 0.81216-0.094 1.1824-1e-3 0.19174 0.048 0.35938 0.16516 0.54321 0.23779 0.16822 0.15117 0.42254 0.0613 0.60762 0.12877 0.26318 0.096 0.44841 0.24303 0.72993 0.31032 0.13356 0.0944 0.30348 0.0211 0.44413 0.0735 0.0985 0.0367 0.17775 0.11272 0.27107 0.16109 0.26373 0.13673 0.46826 0.16313 0.72382 0.334 0.51525 0.19555 0.97668 0.49965 1.525 0.60168 0.57607 0.24082 1.139 0.49643 1.7274 0.70612 0.58502 0.37334 1.2449 0.58065 1.8664 0.87514 0.61433 0.31158 1.2178 0.62633 1.8363 0.92667 0.48276 0.20805 0.80841 0.63192 1.2308 0.93249 0.34141 0.36364 0.77554 0.585 1.1724 0.87282 0.46447 0.21983 0.81687 0.59041 1.2351 0.87973 0.3937 0.29249 0.82447 0.51006 1.2346 0.781 0.46898 0.14807 0.94967 0.3329 1.3208 0.66894 0.40365 0.22423 0.73409 0.54585 1.0753 0.85181 0.40391 0.36625 0.73401 0.79536 1.0529 1.2355 0.3292 0.42736 0.67004 0.8426 0.9769 1.2852 0.29607 0.40095 0.44087 0.89036 0.70178 1.3109 0.22455 0.40435 0.43079 0.81495 0.65183 1.2214 0.2573 0.41403 0.43894 0.86569 0.65786 1.2996 0.19582 0.34739 0.36544 0.72006 0.64447 1.0087 0.37216 0.34196 0.65799 0.76877 0.90469 1.2078 0.22638 0.48263 0.43058 0.98259 0.58692 1.4932 0.20365 0.45061 0.32825 0.92823 0.4821 1.3959 0.20585 0.48201 0.34896 0.98513 0.43762 1.5008 0.0172 0.39087 0.18386 0.7453 0.28848 1.1183 0.10998 0.45898 0.13729 0.93 0.16047 1.3995 7e-3 0.31988 0.17925 0.631 0.26283 0.94384 0.0762 0.28274 0.11528 0.60321 0.0893 0.8687 0.13581 0.3839 0.2535 0.76975 0.33044 1.1702 0.0563 0.36013 0.0814 0.72345 0.083 1.0876 4e-3 0.32242 0 0.64484 3e-3 0.96725 0.036 0.28406-0.0683 0.59938 5e-3 0.86871 0.13267 0.37152 0.2507 0.74423 0.31462 1.1339-2.4e-4 0.10874 0.13134 0.79556 0.0167 0.7452 0.19246 0.3591 0.30803 0.71237 0.26874 1.1229-0.0743 0.27638-0.15804 0.54429-0.20138 0.83063-0.0376 0.41367-0.0357 0.82897-0.0423 1.2439 0 0.44301 8e-3 0.886 6e-3 1.329 0 0.15457 6e-3 0.30903 0.0119 0.46345l-10.745 5.4756c6e-3 -0.15821 0.0109-0.31646 0.0114-0.4748-3e-3 -0.44523 4e-3 -0.89047 4e-3 -1.3357-6e-3 -0.43322-0.0111-0.86662-9e-3 -1.2998-4e-3 -0.33644-0.0238-0.71068 0.0983-1.025 0.23915-0.47059 0.39431 0.28287 0.0349-0.52642-0.14719-0.32911-0.14378-0.60972-0.12806-0.96779-5e-3 -0.30775-0.0644-0.5997-0.17714-0.88765-0.16301-0.41333-0.25204-0.77996-0.20841-1.2269 4e-3 -0.32078 4e-3 -0.64154 7e-3 -0.96234-3e-3 -0.31449 0.01-0.62914-5e-3 -0.9435-0.0283-0.35148-0.0915-0.68799-0.249-1.0082-0.13343-0.32697-0.12774-0.61687-0.13827-0.96557-0.0366-0.40239-0.25625-0.75363-0.35891-1.1403 4e-3 -0.39205 3e-3 -0.78513-0.0403-1.1754-0.0715-0.42705-0.30737-0.80657-0.34415-1.2342-0.0268-0.42671-0.10522-0.8468-0.28935-1.2364-0.21034-0.49302-0.26207-1.0433-0.5385-1.5156-0.0973-0.4312-0.30295-0.82173-0.44879-1.2356-0.21045-0.37971-0.50099-0.69694-0.80243-1.0064-0.29736-0.38958-0.5511-0.81475-0.77205-1.2516-0.21916-0.42954-0.39151-0.87824-0.65953-1.2816-0.19685-0.39362-0.40984-0.77485-0.60894-1.1667-0.23497-0.4004-0.40312-0.83762-0.65053-1.2311-0.31149-0.42434-0.62822-0.84325-0.95184-1.2584-0.28755-0.36392-0.57629-0.73175-0.94149-1.0223-0.31639-0.27491-0.66527-0.50054-1.0093-0.73859-0.45304-0.12778-0.88087-0.40577-1.287-0.63358-0.43463-0.27543-0.88868-0.52227-1.2821-0.85931-0.37674-0.3091-0.79886-0.54485-1.1953-0.82711-0.43862-0.27617-0.82658-0.61556-1.2326-0.93604-0.33758-0.28989-0.66249-0.58167-1.0805-0.75272-0.57983-0.3128-1.1808-0.59018-1.7769-0.87096-0.63424-0.24624-1.2267-0.58268-1.8622-0.82471-0.55443-0.23372-1.1114-0.46629-1.6862-0.6446-0.55253-0.23605-1.0957-0.49299-1.6382-0.75031-0.45521-0.11169-0.87849-0.31084-1.3358-0.41943-0.43386-0.17199-0.87262-0.25162-1.318-0.39448-0.48683-0.0684-1.0213 0.0816-1.5223-0.0188-0.71924-0.0282-1.4376-0.0875-2.1574-0.0895-0.80356 0.094 0.17598-0.0449-0.54215 0.12869-0.40003 0.0967-0.80698-0.0447-1.2124 1e-3 -0.54351-9e-3 -1.0935-0.018-1.6252-0.14251-0.39087-0.10056-0.8037-0.36934-1.199-0.33146-0.45038-0.10036-0.88837-0.25978-1.3457-0.31911-0.43497 0.0935-0.8894 0.0239-1.332 0.0446-0.47149 2e-3 -0.94324 1e-3 -1.4142-0.0246-0.53234-0.0365-1.0645-0.0938-1.5784-0.24571-0.4936-0.12367-0.90842-0.16347-1.4115-0.0529-0.52766 0.065-1.037 0.21456-1.5368 0.39327-0.56137 0.11956-1.1251 0.22924-1.6862 0.33916-0.51396-0.0448-1.0262-6e-3 -1.5337 0.09-0.52036 0.1294-1.0328 0.36126-1.5748 0.33689-0.51826 0.11915-0.98755 0.36303-1.4895 0.53279-0.67078 0.19036-1.296 0.55715-1.9145 0.87025 3.3039-1.912 6.6052-3.8287 9.9117-5.7362 0.11171-0.0644-0.21394 0.14468-0.32692 0.20685-0.44225 0.24341-0.90051 0.47513-1.2655 0.83499-0.74572 0.39902-1.3604 0.95392-1.9312 1.5747-0.52023 0.51471-1.0314 1.0384-1.551 1.5538-0.45395 0.45785-0.90826 0.91571-1.3342 1.4001-0.28477 0.32459-0.55351 0.6848-0.85971 0.98846-0.34219 0.33933-0.39534 0.28455-0.73382 0.6362-0.12751 0.13246-0.23482 0.28295-0.35224 0.42443-0.78388 1.0046-1.6496 1.9624-2.2104 3.1167l-10.913 4.9375z"/>
	</g>
</svg>
